<?xml version="1.0" encoding="utf-8"?><!-- Uploaded to: SVG Repo, www.svgrepo.com, Generator: SVG Repo Mixer Tools -->
<svg fill="#000000" width="800px" height="800px" viewBox="0 0 24 24" id="coffee-beans-left-1" data-name="Flat Color" xmlns="http://www.w3.org/2000/svg" class="icon flat-color"><path id="secondary" d="M2.3,6.26c.25.29.44.49.46.51,3.34,3.52,5.25,3.75,6.93,4a9.2,9.2,0,0,1,1.17.19,8.19,8.19,0,0,0-2.37,2.95A5.53,5.53,0,0,0,8,15.49a9.88,9.88,0,0,1-1.51-.72C3,12.73,1.26,9.07,2.3,6.26ZM3.43,4.53c.4.48.76.84.76.85,2.86,3,4.26,3.18,5.74,3.35A7.45,7.45,0,0,1,13,9.62a8.42,8.42,0,0,1,3.35-.74h.2c0-.11-.08-.21-.13-.32a9.51,9.51,0,0,0-4-4.19A9.4,9.4,0,0,0,6.9,3,5.76,5.76,0,0,0,3.43,4.53Z" style="fill: rgb(44, 169, 188);"></path><path id="primary" d="M21.7,11.14c1,2.8-.71,6.47-4.21,8.5-3.26,1.9-7,1.76-9-.13.31-.39.65-.79.8-1,2.4-2.64,3.62-2.79,5-3,1.68-.2,3.59-.43,6.93-3.95C21.26,11.62,21.45,11.43,21.7,11.14ZM7.8,17.21c2.91-3.2,4.62-3.4,6.27-3.6,1.48-.18,2.88-.35,5.74-3.35,0,0,.36-.38.76-.86A5.73,5.73,0,0,0,17.1,7.91a9.46,9.46,0,0,0-5.57,1.34,9.51,9.51,0,0,0-3.94,4.2A6.21,6.21,0,0,0,7,16a5,5,0,0,0,.32,1.76Z" style="fill: rgb(0, 0, 0);"></path></svg>